<svg xmlns="http://www.w3.org/2000/svg" viewBox="0 0 70 72.97"><defs><linearGradient id="A" x1="35.2" y1=".2" x2="35.2" y2="67.4" gradientUnits="userSpaceOnUse"><stop offset="0" stop-color="#eaf7ff"/><stop offset="1" stop-color="#fff"/></linearGradient><linearGradient id="B" x1="35.2" y1=".2" x2="35.2" y2="70.2" gradientUnits="userSpaceOnUse"><stop offset="0" stop-color="#eaf7ff" stop-opacity=".5"/><stop offset="1" stop-color="#fff" stop-opacity=".46"/></linearGradient><mask id="C" x="0" y="0" width="70" height="72.97" maskUnits="userSpaceOnUse"><circle cx="40" cy="40" r="35" fill="#fff" transform="translate(-5 -5)"/></mask><mask id="D" x="0" y="0" width="70" height="70" maskUnits="userSpaceOnUse"><circle cx="40" cy="40" r="35" fill="#fff" transform="translate(-5 -5)"/></mask></defs><circle cx="35" cy="35" r="35" fill="url(#A)"/><circle cx="35" cy="35" r="35" fill="url(#B)"/><g mask="url(#C)"><g transform="translate(-5 -5)"><path d="M16.67 51.92q21.58-19.2 46.66-15.08l-5.57 5.48q7 2.74 2.1 5.48c1.86 0 2.55 1.37 2.1 4.12V78H16.67z" fill="#57a2d4"/><path d="M16.67 65C32 56.4 45.44 51 62.56 51.74v15.48c-6.23 5.45-24.9 16.34-45.9-.78z" fill="#91c5e6"/><path d="M29.9 60.13a.5.5 0 0 1 .5.5v1.75a.51.51 0 0 1-.5.5.5.5 0 0 1-.5-.5v-1.75a.5.5 0 0 1 .5-.5zm1.36 0h.37a.5.5 0 0 1 .5.5v1.75a.5.5 0 0 1-.5.5h-.37a.5.5 0 0 1-.5-.5v-1.75a.5.5 0 0 1 .5-.5zm11.16 0a1.38 1.38 0 0 1 1.38 1.37 1.38 1.38 0 0 1-1.38 1.38 1.38 1.38 0 0 1-1.37-1.38 1.38 1.38 0 0 1 1.37-1.37zm13.73 0a1.37 1.37 0 1 1 0 2.75 1.37 1.37 0 1 1 0-2.75z" fill="#fff"/></g><rect x="19.58" y="64.05" width="1" height="1.37" rx=".5" fill="#fff"/><g transform="translate(-5 -5)"><path d="M26.45 69.05h.38a.51.51 0 0 1 .5.5v.37a.5.5 0 0 1-.5.5h-.38a.5.5 0 0 1-.5-.5v-.37a.51.51 0 0 1 .5-.5zm10.3 0h1.74a.5.5 0 0 1 .5.5v.37a.5.5 0 0 1-.5.5h-1.74a.5.5 0 0 1-.5-.5v-.37a.5.5 0 0 1 .5-.5zm13.9 0H52a.69.69 0 0 1 .69.69.68.68 0 0 1-.69.68h-1.34a.68.68 0 0 1-.69-.68.69.69 0 0 1 .69-.69z" fill="#fff"/><path d="M59.9,24.44l1.37,2.06V36.8H58.53V26.5Z" fill="#ceecff" fill-rule="evenodd"/><path d="M22.84 58.76V51.9a32.7 32.7 0 0 1 3.43-2.06q0 .68-3.43 8.92zM30.4 56v-7.54a33.06 33.06 0 0 1 3.43-2.05c0 .45-1.14 3.66-3.43 9.6zm8.24-2v-9a8.54 8.54 0 0 1 3.43-1.37q0 .72-3.43 10.37zm8.23-2.05V41.6c.46-.9 1.6-1.37 3.43-1.37q0 .7-3.43 11.67z" fill="#fff"/><path d="M16.67 49.84q17.83-19.2 40.5-17.16v2.06q-18.54-2.06-40.5 15.1z" fill="#ceecff" fill-rule="evenodd"/></g></g><g mask="url(#D)" transform="translate(-5 -5)" fill="#fff"><path d="M46.93 14.38a2.51 2.51 0 0 1 .29 5h-7.6a2 2 0 0 1 0-3.93h.14a3.05 3.05 0 0 1 6-.84 2.47 2.47 0 0 1 1.11-.25zm-26.76 20.9a1.583 1.583 0 1 1 .18 3.16.54.54 0 0 1-.18 0h-4.6a1.24 1.24 0 1 1 0-2.47h.1a1.923 1.923 0 0 1 3.81-.53 1.56 1.56 0 0 1 .7-.16z"/></g></svg>